<?xml version="1.0" encoding="UTF-8"?><svg id="Layer_2" xmlns="http://www.w3.org/2000/svg" viewBox="0 0 166.93 163.76"><defs><style>.cls-1{fill:#9fba9a;}</style></defs><g id="_4"><path class="cls-1" d="M159.18,49.28c-20.74-6.24-43.52,2.53-58.6,17.49-5.34,5.3-9.74,11.32-13.41,17.8,3.43-31.95-.05-64.62-32.26-79.85-5.58-2.64-20.3-8.27-25.06-1.51-2.64,3.74-.44,10.45.29,14.48,1.37,7.54,3.44,14.95,6.21,22.08,4.26,10.97,10.3,21.5,19.64,28.72,5.45,4.22,15.63,9.76,23.72,8.92-.91,10.46-2.97,21.01-5.01,31.05-2.76-8.56-6.64-16.7-12.08-24.03-12.49-16.85-33.03-28.81-54.13-26.21-12.43,1.53-8.43,11.49-5.3,20.71,4,11.77,9.34,23.32,16.47,33.46,6.86,9.75,15.49,18.23,26.41,22.97,6.65,2.89,17.19,5.85,24.96,3.37.59,7.03.68,14.01.43,20.65-.23,5.85,8.66,5.84,8.89,0,.27-6.99.23-14.13-.25-21.25.01-.08.04-.14.05-.22.92-6.67,2.26-13.63,4.1-20.56,6.68,3.55,16.84,2.83,23.36,1.6,12.13-2.29,22.8-9.28,31.59-17.92,9.42-9.27,17.28-20.6,23.47-32.33,4.53-8.59,7.99-15.96-3.49-19.41ZM55.9,56.12c-7.01-7.85-11.2-18.12-14.17-28.18-1.5-5.09-2.69-10.28-3.5-15.54-.12-.9-.24-1.8-.36-2.7.21.03.47,0,.79-.07,2.21.12,4.4.5,6.54,1.08,8.81,2.41,16.41,8.25,22.2,15.34,8.35,10.2,11.82,22.16,12.62,34.72-1.37-2.81-2.54-5.79-3.93-8.37-4.73-8.82-10.16-17.18-16.12-25.17-3.42-4.59-11.15-.07-7.67,4.59,5.96,8,11.39,16.35,16.12,25.17,1.78,3.32,3.22,6.91,4.92,10.29-1.97-.6-3.86-1.34-5.03-1.87-4.77-2.14-8.9-5.37-12.41-9.3ZM60.72,110.08c-6.52-8.59-13.62-16.63-21.21-24.23-4.09-4.1-10.38,2.33-6.28,6.43,8.04,8.05,15.59,16.59,22.37,25.79,3,4.07,5.78,8.27,8.55,12.5-3.2-.21-6.76-1.02-8.19-1.37-4.78-1.17-9.34-3.29-13.43-6.05-8.21-5.54-14.5-13.62-19.54-22.16-5.04-8.54-9.07-17.71-12.1-27.19-.57-1.79-2.35-5.12-1.98-6.85-.75-1.62-.5-1.83.76-.63.95.94,2.09,1.15,3.42.62,4.22.47,8.21.39,12.37,1.54,25.24,6.94,37.71,28.48,42.96,52.42-2.51-3.64-5.01-7.28-7.68-10.81ZM154.99,64.1c-4.62,8.77-10.14,17.14-16.6,24.6-6.61,7.64-14.28,14.55-23.56,18.52-4.78,2.05-9.77,3.3-14.97,3.46-1.75.05-4.61.09-7.29-.31,2.91-3.04,5.88-6.02,8.95-8.89,7.97-7.45,16.5-14.19,25.44-20.37,4.71-3.26.27-11.14-4.49-7.86-7.25,5.01-14.27,10.36-20.95,16.14-3.2,2.76-6.31,5.62-9.35,8.57-.73.71-1.45,1.45-2.17,2.17,9.3-22.47,25.19-41.3,51.02-43.61,4.14-.37,8.38-.21,12.45.65,5.8,1.23,4.12,1.98,1.51,6.92Z"/></g></svg>